<svg xmlns="http://www.w3.org/2000/svg" xmlns:xlink="http://www.w3.org/1999/xlink" width="1300" zoomAndPan="magnify" viewBox="0 0 974.88 141.750002" height="189" preserveAspectRatio="xMidYMid meet" version="1.0"><defs><g/></defs><g fill="#000000" fill-opacity="1"><g transform="translate(94.816633, 103.121366)"><g><path d="M 8.984375 -25.484375 C 8.984375 -26.984375 9.265625 -28.378906 9.828125 -29.671875 C 10.398438 -30.972656 11.171875 -32.113281 12.140625 -33.09375 C 13.109375 -34.082031 14.25 -34.859375 15.5625 -35.421875 C 16.882812 -35.992188 18.273438 -36.28125 19.734375 -36.28125 L 47.578125 -36.28125 L 47.578125 -47.578125 L 12.328125 -47.578125 L 12.328125 -58.375 L 47.578125 -58.375 C 49.078125 -58.375 50.484375 -58.085938 51.796875 -57.515625 C 53.109375 -56.953125 54.25 -56.1875 55.21875 -55.21875 C 56.1875 -54.25 56.953125 -53.109375 57.515625 -51.796875 C 58.085938 -50.484375 58.375 -49.078125 58.375 -47.578125 L 58.375 0 L 47.578125 0 L 47.578125 -9.859375 C 47.460938 -8.515625 47.09375 -7.238281 46.46875 -6.03125 C 45.851562 -4.820312 45.0625 -3.769531 44.09375 -2.875 C 43.125 -1.976562 42.019531 -1.273438 40.78125 -0.765625 C 39.539062 -0.253906 38.222656 0 36.828125 0 L 19.734375 0 C 18.273438 0 16.882812 -0.28125 15.5625 -0.84375 C 14.25 -1.414062 13.109375 -2.1875 12.140625 -3.15625 C 11.171875 -4.125 10.398438 -5.265625 9.828125 -6.578125 C 9.265625 -7.890625 8.984375 -9.296875 8.984375 -10.796875 Z M 19.734375 -10.796875 L 47.578125 -10.796875 L 47.578125 -25.484375 L 19.734375 -25.484375 Z M 19.734375 -10.796875 "/></g></g></g><g fill="#000000" fill-opacity="1"><g transform="translate(158.81281, 103.121366)"><g><path d="M 25.59375 0 L 2.25 -58.375 L 13.484375 -58.375 L 31.1875 -12.9375 L 48.9375 -58.375 L 60.1875 -58.375 L 36.828125 0 Z M 25.59375 0 "/></g></g></g><g fill="#000000" fill-opacity="1"><g transform="translate(217.8759, 103.121366)"><g><path d="M 5.59375 -58.375 L 19.84375 -58.375 L 19.84375 -76.34375 L 30.640625 -76.34375 L 30.640625 -58.375 L 49.828125 -58.375 L 49.828125 -47.578125 L 30.640625 -47.578125 L 30.640625 -10.796875 L 49.828125 -10.796875 L 49.828125 0 L 30.640625 0 C 29.179688 0 27.789062 -0.28125 26.46875 -0.84375 C 25.15625 -1.414062 24.003906 -2.1875 23.015625 -3.15625 C 22.035156 -4.125 21.257812 -5.265625 20.6875 -6.578125 C 20.125 -7.890625 19.84375 -9.296875 19.84375 -10.796875 L 19.84375 -47.578125 L 5.59375 -47.578125 Z M 5.59375 -58.375 "/></g></g></g><g fill="#000000" fill-opacity="1"><g transform="translate(273.321393, 103.121366)"><g><path d="M 59.46875 -10.796875 C 59.46875 -9.296875 59.179688 -7.890625 58.609375 -6.578125 C 58.046875 -5.265625 57.28125 -4.125 56.3125 -3.15625 C 55.34375 -2.1875 54.207031 -1.414062 52.90625 -0.84375 C 51.613281 -0.28125 50.21875 0 48.71875 0 L 19.734375 0 C 18.273438 0 16.882812 -0.28125 15.5625 -0.84375 C 14.25 -1.414062 13.109375 -2.1875 12.140625 -3.15625 C 11.171875 -4.125 10.398438 -5.265625 9.828125 -6.578125 C 9.265625 -7.890625 8.984375 -9.296875 8.984375 -10.796875 L 8.984375 -47.578125 C 8.984375 -49.078125 9.265625 -50.484375 9.828125 -51.796875 C 10.398438 -53.109375 11.171875 -54.25 12.140625 -55.21875 C 13.109375 -56.1875 14.25 -56.953125 15.5625 -57.515625 C 16.882812 -58.085938 18.273438 -58.375 19.734375 -58.375 L 48.71875 -58.375 C 50.21875 -58.375 51.613281 -58.085938 52.90625 -57.515625 C 54.207031 -56.953125 55.34375 -56.1875 56.3125 -55.21875 C 57.28125 -54.25 58.046875 -53.109375 58.609375 -51.796875 C 59.179688 -50.484375 59.46875 -49.078125 59.46875 -47.578125 Z M 19.734375 -47.578125 L 19.734375 -10.796875 L 48.71875 -10.796875 L 48.71875 -47.578125 Z M 19.734375 -47.578125 "/></g></g></g><g fill="#000000" fill-opacity="1"><g transform="translate(338.413812, 103.121366)"><g><path d="M 55.25 -47.578125 L 55.25 0 L 44.453125 0 L 44.453125 -47.578125 L 19.734375 -47.578125 L 19.734375 0 L 8.984375 0 L 8.984375 -58.375 L 19.734375 -58.375 L 19.734375 -48.0625 C 19.804688 -49.488281 20.132812 -50.832031 20.71875 -52.09375 C 21.300781 -53.351562 22.078125 -54.445312 23.046875 -55.375 C 24.015625 -56.3125 25.140625 -57.046875 26.421875 -57.578125 C 27.703125 -58.109375 29.070312 -58.375 30.53125 -58.375 L 44.453125 -58.375 C 45.878906 -58.375 47.226562 -58.109375 48.5 -57.578125 C 49.78125 -57.046875 50.914062 -56.3125 51.90625 -55.375 C 52.894531 -54.445312 53.6875 -53.351562 54.28125 -52.09375 C 54.882812 -50.832031 55.207031 -49.488281 55.25 -48.0625 C 55.320312 -49.488281 55.640625 -50.832031 56.203125 -52.09375 C 56.773438 -53.351562 57.546875 -54.445312 58.515625 -55.375 C 59.484375 -56.3125 60.601562 -57.046875 61.875 -57.578125 C 63.15625 -58.109375 64.523438 -58.375 65.984375 -58.375 L 79.90625 -58.375 C 81.40625 -58.375 82.8125 -58.085938 84.125 -57.515625 C 85.445312 -56.953125 86.59375 -56.1875 87.5625 -55.21875 C 88.53125 -54.25 89.296875 -53.109375 89.859375 -51.796875 C 90.421875 -50.484375 90.703125 -49.078125 90.703125 -47.578125 L 90.703125 0 L 79.90625 0 L 79.90625 -47.578125 Z M 55.25 -47.578125 "/></g></g></g><g fill="#000000" fill-opacity="1"><g transform="translate(434.749117, 103.121366)"><g><path d="M 8.984375 -25.484375 C 8.984375 -26.984375 9.265625 -28.378906 9.828125 -29.671875 C 10.398438 -30.972656 11.171875 -32.113281 12.140625 -33.09375 C 13.109375 -34.082031 14.25 -34.859375 15.5625 -35.421875 C 16.882812 -35.992188 18.273438 -36.28125 19.734375 -36.28125 L 47.578125 -36.28125 L 47.578125 -47.578125 L 12.328125 -47.578125 L 12.328125 -58.375 L 47.578125 -58.375 C 49.078125 -58.375 50.484375 -58.085938 51.796875 -57.515625 C 53.109375 -56.953125 54.25 -56.1875 55.21875 -55.21875 C 56.1875 -54.25 56.953125 -53.109375 57.515625 -51.796875 C 58.085938 -50.484375 58.375 -49.078125 58.375 -47.578125 L 58.375 0 L 47.578125 0 L 47.578125 -9.859375 C 47.460938 -8.515625 47.09375 -7.238281 46.46875 -6.03125 C 45.851562 -4.820312 45.0625 -3.769531 44.09375 -2.875 C 43.125 -1.976562 42.019531 -1.273438 40.78125 -0.765625 C 39.539062 -0.253906 38.222656 0 36.828125 0 L 19.734375 0 C 18.273438 0 16.882812 -0.28125 15.5625 -0.84375 C 14.25 -1.414062 13.109375 -2.1875 12.140625 -3.15625 C 11.171875 -4.125 10.398438 -5.265625 9.828125 -6.578125 C 9.265625 -7.890625 8.984375 -9.296875 8.984375 -10.796875 Z M 19.734375 -10.796875 L 47.578125 -10.796875 L 47.578125 -25.484375 L 19.734375 -25.484375 Z M 19.734375 -10.796875 "/></g></g></g><g fill="#000000" fill-opacity="1"><g transform="translate(498.745295, 103.121366)"><g><path d="M 5.59375 -58.375 L 19.84375 -58.375 L 19.84375 -76.34375 L 30.640625 -76.34375 L 30.640625 -58.375 L 49.828125 -58.375 L 49.828125 -47.578125 L 30.640625 -47.578125 L 30.640625 -10.796875 L 49.828125 -10.796875 L 49.828125 0 L 30.640625 0 C 29.179688 0 27.789062 -0.28125 26.46875 -0.84375 C 25.15625 -1.414062 24.003906 -2.1875 23.015625 -3.15625 C 22.035156 -4.125 21.257812 -5.265625 20.6875 -6.578125 C 20.125 -7.890625 19.84375 -9.296875 19.84375 -10.796875 L 19.84375 -47.578125 L 5.59375 -47.578125 Z M 5.59375 -58.375 "/></g></g></g><g fill="#000000" fill-opacity="1"><g transform="translate(554.190764, 103.121366)"><g><path d="M 8.984375 -16.390625 L 25.375 -16.390625 L 25.375 0 L 8.984375 0 Z M 8.984375 -16.390625 "/></g></g></g><g fill="#2d547d" fill-opacity="1"><g transform="translate(585.201748, 103.121366)"><g><path d="M 8.984375 -25.484375 C 8.984375 -26.984375 9.265625 -28.378906 9.828125 -29.671875 C 10.398438 -30.972656 11.171875 -32.113281 12.140625 -33.09375 C 13.109375 -34.082031 14.25 -34.859375 15.5625 -35.421875 C 16.882812 -35.992188 18.273438 -36.28125 19.734375 -36.28125 L 47.578125 -36.28125 L 47.578125 -47.578125 L 12.328125 -47.578125 L 12.328125 -58.375 L 47.578125 -58.375 C 49.078125 -58.375 50.484375 -58.085938 51.796875 -57.515625 C 53.109375 -56.953125 54.25 -56.1875 55.21875 -55.21875 C 56.1875 -54.25 56.953125 -53.109375 57.515625 -51.796875 C 58.085938 -50.484375 58.375 -49.078125 58.375 -47.578125 L 58.375 0 L 47.578125 0 L 47.578125 -9.859375 C 47.460938 -8.515625 47.09375 -7.238281 46.46875 -6.03125 C 45.851562 -4.820312 45.0625 -3.769531 44.09375 -2.875 C 43.125 -1.976562 42.019531 -1.273438 40.78125 -0.765625 C 39.539062 -0.253906 38.222656 0 36.828125 0 L 19.734375 0 C 18.273438 0 16.882812 -0.28125 15.5625 -0.84375 C 14.25 -1.414062 13.109375 -2.1875 12.140625 -3.15625 C 11.171875 -4.125 10.398438 -5.265625 9.828125 -6.578125 C 9.265625 -7.890625 8.984375 -9.296875 8.984375 -10.796875 Z M 19.734375 -10.796875 L 47.578125 -10.796875 L 47.578125 -25.484375 L 19.734375 -25.484375 Z M 19.734375 -10.796875 "/></g></g></g><g fill="#2d547d" fill-opacity="1"><g transform="translate(649.197925, 103.121366)"><g><path d="M 21.109375 0 L 2.25 -58.375 L 13.15625 -58.375 L 26.96875 -14.359375 L 39.84375 -58.375 L 50.859375 -58.375 L 63.75 -14.359375 L 77.5625 -58.375 L 88.46875 -58.375 L 69.609375 0 L 58.375 0 L 45.328125 -42.859375 L 32.34375 0 Z M 21.109375 0 "/></g></g></g><g fill="#2d547d" fill-opacity="1"><g transform="translate(736.544049, 103.121366)"><g><path d="M 44.234375 -10.796875 L 44.234375 -24.328125 L 18.640625 -24.328125 C 17.140625 -24.328125 15.726562 -24.609375 14.40625 -25.171875 C 13.09375 -25.742188 11.953125 -26.515625 10.984375 -27.484375 C 10.015625 -28.453125 9.25 -29.59375 8.6875 -30.90625 C 8.125 -32.226562 7.84375 -33.640625 7.84375 -35.140625 L 7.84375 -47.578125 C 7.84375 -49.078125 8.125 -50.484375 8.6875 -51.796875 C 9.25 -53.109375 10.015625 -54.25 10.984375 -55.21875 C 11.953125 -56.1875 13.09375 -56.953125 14.40625 -57.515625 C 15.726562 -58.085938 17.140625 -58.375 18.640625 -58.375 L 52.78125 -58.375 L 52.78125 -47.578125 L 18.640625 -47.578125 L 18.640625 -35.140625 L 44.234375 -35.140625 C 45.734375 -35.140625 47.128906 -34.851562 48.421875 -34.28125 C 49.722656 -33.71875 50.863281 -32.953125 51.84375 -31.984375 C 52.832031 -31.015625 53.609375 -29.867188 54.171875 -28.546875 C 54.742188 -27.234375 55.03125 -25.828125 55.03125 -24.328125 L 55.03125 -10.796875 C 55.03125 -9.296875 54.742188 -7.890625 54.171875 -6.578125 C 53.609375 -5.265625 52.832031 -4.125 51.84375 -3.15625 C 50.863281 -2.1875 49.722656 -1.414062 48.421875 -0.84375 C 47.128906 -0.28125 45.734375 0 44.234375 0 L 7.84375 0 L 7.84375 -10.796875 Z M 44.234375 -10.796875 "/></g></g></g><g fill="#2d547d" fill-opacity="1"><g transform="translate(796.045635, 103.121366)"><g><path d="M 36.9375 12.9375 L 36.9375 23.5625 L 35.359375 23.5625 C 31.191406 23.5625 27.40625 22.910156 24 21.609375 C 20.601562 20.316406 17.707031 18.472656 15.3125 16.078125 C 12.925781 13.691406 11.082031 10.796875 9.78125 7.390625 C 8.488281 3.992188 7.84375 0.210938 7.84375 -3.953125 L 7.84375 -56.671875 C 7.84375 -60.835938 8.488281 -64.617188 9.78125 -68.015625 C 11.082031 -71.410156 12.925781 -74.304688 15.3125 -76.703125 C 17.707031 -79.097656 20.601562 -80.941406 24 -82.234375 C 27.40625 -83.535156 31.191406 -84.1875 35.359375 -84.1875 L 36.9375 -84.1875 L 36.9375 -73.5 L 35.359375 -73.5 C 32.796875 -73.5 30.507812 -73.132812 28.5 -72.40625 C 26.488281 -71.675781 24.789062 -70.609375 23.40625 -69.203125 C 22.019531 -67.796875 20.953125 -66.085938 20.203125 -64.078125 C 19.453125 -62.066406 19.078125 -59.78125 19.078125 -57.21875 L 19.078125 -3.34375 C 19.078125 1.84375 20.488281 5.851562 23.3125 8.6875 C 26.144531 11.519531 30.160156 12.9375 35.359375 12.9375 Z M 36.9375 12.9375 "/></g></g></g><g fill="#2d547d" fill-opacity="1"><g transform="translate(836.362994, 103.121366)"><g><path d="M 8.328125 12.9375 C 13.515625 12.9375 17.523438 11.519531 20.359375 8.6875 C 23.191406 5.851562 24.609375 1.84375 24.609375 -3.34375 L 24.609375 -57.21875 C 24.609375 -59.78125 24.242188 -62.066406 23.515625 -64.078125 C 22.785156 -66.085938 21.71875 -67.796875 20.3125 -69.203125 C 18.90625 -70.609375 17.195312 -71.675781 15.1875 -72.40625 C 13.175781 -73.132812 10.890625 -73.5 8.328125 -73.5 L 6.734375 -73.5 L 6.734375 -84.1875 L 8.328125 -84.1875 C 12.492188 -84.1875 16.273438 -83.535156 19.671875 -82.234375 C 23.078125 -80.941406 25.96875 -79.097656 28.34375 -76.703125 C 30.71875 -74.304688 32.550781 -71.410156 33.84375 -68.015625 C 35.144531 -64.617188 35.796875 -60.835938 35.796875 -56.671875 L 35.796875 -3.953125 C 35.796875 0.210938 35.144531 3.992188 33.84375 7.390625 C 32.550781 10.796875 30.71875 13.691406 28.34375 16.078125 C 25.96875 18.472656 23.078125 20.316406 19.671875 21.609375 C 16.273438 22.910156 12.492188 23.5625 8.328125 23.5625 L 6.734375 23.5625 L 6.734375 12.9375 Z M 8.328125 12.9375 "/></g></g></g></svg>